<?xml version="1.0" encoding="UTF-8" standalone="no"?>
<!-- Created with Inkscape (http://www.inkscape.org/) -->

<svg
   width="63.91px"
   height="104.65px"
   version="1.1"
   viewBox="0 0 63.91 104.65"
   id="svg22"
   xmlns="http://www.w3.org/2000/svg"
   xmlns:svg="http://www.w3.org/2000/svg">
  <defs>
  </defs>
  <g
     transform="matrix(0.26458,0,0,0.26458,0.2013,0.133)"
     stroke="#000000"
     id="g14">
    <g
       id="path12"
       transform="matrix(-1,0,0,1,160,0)">
      <path
         id="path142"
         style="color:#000000;fill:#000000;stroke-miterlimit:10;-inkscape-stroke:none"
         d="m 79.671875,-0.5 -80.43359375,186 H 0 80.328125 l 80.433595,-186 z m 0.65625,1 h 78.910155 l -79.566405,184 H 0.76171875 Z M 0,185 80,0 h 80 L 80,185 Z M 0.30859,-0.5 0.44727,-0.22460938 40.55273,79.535156 0.01367,171.40625 -80.78711,-0.5 Z m -0.61718,1 H -79.21094 L -0.01367,168.99414 39.44727,79.564453 Z M 0,0 H -80 L 0,170.2 40,79.55 Z M 39.852975,187.5274 A -102.81578,103.74934 0 0 1 142.66876,291.27674 -102.81578,103.74934 0 0 1 39.852975,395.02608 -102.81578,103.74934 0 0 1 -62.966589,291.27674 -102.81578,103.74934 0 0 1 39.852975,187.5274 Z m -19.531333,44.36088 c -6.24348,0 -11.3515762,5.10809 -11.3515762,11.35157 0,6.24348 5.1080962,11.35158 11.3515762,11.35158 6.24348,0 11.351576,-5.1081 11.351576,-11.35158 0,-6.24348 -5.108096,-11.35157 -11.351576,-11.35157 z m 19.865447,19.86544 c -3.405586,0 -6.242346,1.13592 -9.080051,3.40631 l -10.785396,10.7835 c -5.108474,5.10848 -11.9200243,8.51387 -20.43389538,8.51387 v 11.35158 c 11.91964638,0 21.56890138,-4.53927 28.94776638,-11.91813 l 4.541159,-4.54116 13.623101,13.62121 -12.488472,13.05503 v 35.192 h 11.351576 v -28.37932 l 18.16426,-15.89273 c 2.270391,-1.70282 3.406305,-4.54192 3.406305,-7.94732 0,-2.838 -1.135914,-5.67503 -3.406305,-7.94542 L 48.134402,255.16041 c -1.702812,-2.2704 -4.541916,-3.40631 -7.947313,-3.40631 z m 39.734674,39.7309 c -15.892736,0 -28.379318,12.48847 -28.379318,28.38121 0,15.89273 12.486582,28.37931 28.379318,28.37931 15.892735,0 28.379317,-12.48658 28.379317,-28.37931 0,-15.89274 -12.486582,-28.38121 -28.379317,-28.38121 z m -79.46556828,0 c -15.89273572,0 -28.38120772,12.48847 -28.38120772,28.38121 0,15.89273 12.488472,28.37931 28.38120772,28.37931 15.89273528,0 28.37931828,-12.48658 28.37931828,-28.37931 0,-15.89274 -12.486583,-28.38121 -28.37931828,-28.38121 z m 79.46556828,8.51576 c 10.784262,0 19.865447,9.08118 19.865447,19.86545 0,10.78426 -9.081185,19.86544 -19.865447,19.86544 -10.784262,0 -19.865447,-9.08118 -19.865447,-19.86544 0,-10.78427 9.081185,-19.86545 19.865447,-19.86545 z m -79.46556828,0 c 10.78426228,0 19.86544728,9.08118 19.86544728,19.86545 0,10.78426 -9.081185,19.86544 -19.86544728,19.86544 -10.78426172,0 -19.86544672,-9.08118 -19.86544672,-19.86544 0,-10.78427 9.081185,-19.86545 19.86544672,-19.86545 z" />
    </g>
  </g>
</svg>
