<?xml version="1.0" encoding="UTF-8" standalone="no"?>
<svg
   version="1.1"
   width="241px"
   height="391px"
   viewBox="-0.5 -0.5 241 391"
   class="ge-export-svg-dark"
   style="background-color: rgb(18, 18, 18);"
   id="svg14"
   xmlns="http://www.w3.org/2000/svg"
   xmlns:svg="http://www.w3.org/2000/svg">
  <defs
     id="defs4">
    <style
       type="text/css"
       id="style2">svg.ge-export-svg-dark &gt; * { filter: invert(100%) hue-rotate(180deg); }
svg.ge-export-svg-dark image { filter: invert(100%) hue-rotate(180deg) }</style>
  </defs>
  <g
     id="ellipse6" />
  <g
     id="path8" />
  <g
     id="path10">
    <path
       id="path25"
       style="color:#000000;fill:#000000;stroke-miterlimit:10;-inkscape-stroke:none"
       d="M -0.76953125,-0.49414063 79.667969,185.5 H 160.76367 L 160.46094,184.80273 80.326172,-0.49414063 Z m 1.5234375,1 H 79.667969 L 159.24023,184.5 H 80.326172 Z M 160.00253,185.00027 79.997298,0.0052907 H -0.007934 L 79.997298,185.00027 Z M 159.69336,-0.49414063 159.55664,-0.21875 119.44727,79.539062 159.98828,171.40625 240.79492,-0.49414063 Z m 0.61719,1 h 78.9082 L 160.01758,168.99414 120.55273,79.566406 Z M 160.00253,0.0052907 h 80.00523 L 160.00253,170.20067 v 0 0 0 L 119.99991,79.553133 v 0 z M 120,189.5 c -55.502231,0 -100.505859,45.00088 -100.505859,100.49805 0,55.49717 45.003628,100.49609 100.505859,100.49609 55.50223,0 100.50586,-44.99892 100.50586,-100.49609 C 220.50586,234.50088 175.50223,189.5 120,189.5 Z m 0,1 c 54.96183,0 99.50586,44.54138 99.50586,99.49805 0,54.95667 -44.54403,99.49609 -99.50586,99.49609 -54.961831,0 -99.505859,-44.53942 -99.505859,-99.49609 C 20.494141,235.04138 65.038169,190.5 120,190.5 Z m 100.00645,99.49744 A 100.00654,99.997284 0 0 1 119.99991,389.99472 100.00654,99.997284 0 0 1 19.99337,289.99744 100.00654,99.997284 0 0 1 119.99991,190.00015 100.00654,99.997284 0 0 1 220.00645,289.99744 Z" />
  </g>
</svg>
