<?xml version="1.0" encoding="UTF-8"?>
<svg id="Ebene_1" data-name="Ebene 1" xmlns="http://www.w3.org/2000/svg" viewBox="0 0 1024 1024">
  <defs>
    <style>
      .cls-1 {
        fill: #fa1e41;
      }

      .cls-1, .cls-2, .cls-3 {
        stroke-width: 0px;
      }

      .cls-2 {
        fill: #8c0041;
      }

      .cls-3 {
        fill: #fff;
      }
    </style>
  </defs>
  <rect class="cls-1" x="0" y="0" width="1024" height="1024"/>
  <g>
    <path class="cls-2" d="M794,496h-171.99c-11.05,0-20-8.96-20-20.01.02-43.12.06-142.47.11-161.59,0-2.21,1.79-3.98,4-3.98h54.31c14.25,0,21.39-17.23,11.32-27.31l-103.75-113.03c-4.77-5.19-12.96-5.18-17.71.03l-103.08,113.04c-10.02,10.1-2.87,27.27,11.35,27.27h53.51c2.23,0,4.03,1.81,4,4.04-.06,4.48-.07,93.42-.07,167.54,0,55.23,44.77,99.99,100,99.99h152c22.09,0,40,17.91,40,40v99.91c0,22.13-17.95,40.05-40.08,40-55.84-.12-154.33-.34-191.11-.38-2.91,39.14-27.93,72.11-62.63,86.46,41.85-.1,181.98-.07,279.79-.03,55.24.02,100.03-44.76,100.03-100v-151.95c0-55.23-44.77-100-100-100Z"/>
    <g>
      <path class="cls-3" d="M264.77,537.68l19.27,14.64c25.03,19.01,56.12,29.49,87.56,29.49h9.46l-10.02-28.66c-25.03-.13-49.73-8.51-69.66-23.66l-21.99-16.71c-6.09-4.63-13.87-6.32-21.32-4.61-7.46,1.69-13.74,6.58-17.24,13.38l-33.9,66.15c-5.04,9.84-4.61,21.36,1.16,30.81,5.77,9.46,15.82,15.09,26.89,15.09h60.57c4.1,0,5.89,2.88,6.48,4.11.59,1.23,1.66,4.46-.96,7.62l-17.17,20.79c-15.46-9.49-33.66-14.94-53.13-14.94-56.21,0-101.77,45.56-101.77,101.77s45.56,101.79,101.77,101.79,101.79-45.58,101.79-101.79c0-26.41-10.06-50.48-26.58-68.57l17.18-20.8c8.93-10.8,10.76-25.39,4.79-38.07-5.97-12.68-18.38-20.56-32.4-20.56h-60.57c-1.33,0-2.06-.75-2.45-1.38-.37-.62-.7-1.62-.1-2.79l32.34-63.1ZM303.9,752.96c0,40.32-32.8,73.13-73.13,73.13s-73.12-32.81-73.12-73.13,32.8-73.12,73.12-73.12c12.51,0,24.3,3.15,34.6,8.71l-54.76,66.33,22.09,18.25,54.76-66.33c10.27,12.59,16.43,28.67,16.43,46.15Z"/>
      <path class="cls-3" d="M286.07,492.88c23.73,0,42.98-19.24,42.98-42.98s-19.26-42.98-42.98-42.98-42.98,19.24-42.98,42.98,19.24,42.98,42.98,42.98ZM286.07,435.57c7.89,0,14.33,6.42,14.33,14.33s-6.43,14.33-14.33,14.33-14.33-6.43-14.33-14.33,6.42-14.33,14.33-14.33Z"/>
      <path class="cls-3" d="M475.05,651.19c-.47,0-.95,0-1.42.01-6.26.09-12.38.73-18.31,1.91l-24.93-71.3h43.1v-28.66h-83.46l8.45,24.19,29.79,85.21c-5.47,2.84-10.66,6.16-15.5,9.93-24.03,18.6-39.5,47.73-39.5,80.48,0,56.21,45.58,101.79,101.79,101.79s101.79-45.58,101.79-101.79-45.58-101.77-101.79-101.77ZM475.05,826.09c-40.32,0-73.13-32.81-73.13-73.13,0-19.96,8.05-38.08,21.05-51.28,4.43-4.5,9.44-8.42,14.9-11.65l28.38,81.18,27.05-9.46-28.4-81.21c3.31-.46,6.71-.7,10.14-.7,2.97,0,5.9.17,8.78.53,36.19,4.34,64.35,35.23,64.35,72.59,0,40.32-32.81,73.13-73.13,73.13Z"/>
    </g>
  </g>
</svg>