<?xml version="1.0" encoding="utf-8"?>
<!-- Generator: Adobe Illustrator 27.8.0, SVG Export Plug-In . SVG Version: 6.00 Build 0)  -->
<svg version="1.1" id="Ebene_1" xmlns="http://www.w3.org/2000/svg" xmlns:xlink="http://www.w3.org/1999/xlink" x="0px" y="0px"
	 viewBox="0 0 512 512" style="enable-background:new 0 0 512 512;" xml:space="preserve">
<style type="text/css">
	.st0{fill:#FA1E41;}
	.st1{fill:#8C0041;}
	.st2{fill:#FFFFFF;}
</style>
<rect y="0" class="st0" width="512" height="512"/>
<g>
	<path class="st1" d="M397.2,247.8h-86c-5.5,0-10-4.5-10-10c0-21.6,0-71.2,0-80.8c0-1.1,0.9-2,2-2h27.2c7.1,0,10.7-8.6,5.7-13.7
		l-51.9-56.5c-2.4-2.6-6.5-2.6-8.9,0l-51.5,56.5c-5,5.1-1.4,13.6,5.7,13.6h26.8c1.1,0,2,0.9,2,2c0,2.2,0,46.7,0,83.8
		c0,27.6,22.4,50,50,50h76c11,0,20,9,20,20v50c0,11.1-9,20-20,20c-27.9-0.1-77.2-0.2-95.6-0.2c-1.5,19.6-14,36.1-31.3,43.2
		c20.9,0,91,0,139.9,0c27.6,0,50-22.4,50-50v-76C447.2,270.2,424.9,247.8,397.2,247.8L397.2,247.8z"/>
	<g>
		<path class="st2" d="M132.6,268.6l9.6,7.3c12.5,9.5,28.1,14.7,43.8,14.7h4.7l-5-14.3c-12.5-0.1-24.9-4.3-34.8-11.8l-11-8.4
			c-3-2.3-6.9-3.2-10.7-2.3s-6.9,3.3-8.6,6.7l-17,33.1c-2.5,4.9-2.3,10.7,0.6,15.4c2.9,4.7,7.9,7.5,13.4,7.5H148
			c2,0,2.9,1.4,3.2,2.1c0.3,0.6,0.8,2.2-0.5,3.8l-8.6,10.4c-7.7-4.7-16.8-7.5-26.6-7.5c-28.1,0-50.9,22.8-50.9,50.9
			s22.8,50.9,50.9,50.9s50.9-22.8,50.9-50.9c0-13.2-5-25.2-13.3-34.3l8.6-10.4c4.5-5.4,5.4-12.7,2.4-19c-3-6.3-9.2-10.3-16.2-10.3
			h-30.3c-0.7,0-1-0.4-1.2-0.7c-0.2-0.3-0.3-0.8-0.1-1.4L132.6,268.6L132.6,268.6z M152.2,376.2c0,20.2-16.4,36.6-36.6,36.6
			s-36.6-16.4-36.6-36.6s16.4-36.6,36.6-36.6c6.2,0,12.2,1.6,17.3,4.4l-27.4,33.2l11.1,9.1l27.4-33.2
			C149.1,359.5,152.2,367.5,152.2,376.2L152.2,376.2z"/>
		<path class="st2" d="M143.3,246.2c11.9,0,21.5-9.6,21.5-21.5s-9.6-21.5-21.5-21.5c-11.9,0-21.5,9.6-21.5,21.5
			S131.4,246.2,143.3,246.2z M143.3,217.5c4,0,7.2,3.2,7.2,7.2s-3.2,7.2-7.2,7.2s-7.2-3.2-7.2-7.2S139.3,217.5,143.3,217.5z"/>
		<path class="st2" d="M237.8,325.4c-0.2,0-0.5,0-0.7,0c-3.1,0-6.2,0.4-9.2,1l-12.5-35.6H237v-14.3h-41.7l4.2,12.1l14.9,42.6
			c-2.7,1.4-5.3,3.1-7.8,5c-12,9.3-19.8,23.9-19.8,40.2c0,28.1,22.8,50.9,50.9,50.9s50.9-22.8,50.9-50.9S265.9,325.3,237.8,325.4
			L237.8,325.4z M237.8,412.8c-20.2,0-36.6-16.4-36.6-36.6c0-10,4-19,10.5-25.6c2.2-2.2,4.7-4.2,7.4-5.8l14.2,40.6l13.5-4.7
			L232.7,340c1.6-0.2,3.4-0.4,5.1-0.4c1.5,0,2.9,0.1,4.4,0.3c18.1,2.2,32.2,17.6,32.2,36.3C274.3,396.4,257.9,412.8,237.8,412.8
			L237.8,412.8z"/>
	</g>
</g>
</svg>
