<?xml version="1.0" encoding="UTF-8"?><svg xmlns="http://www.w3.org/2000/svg" viewBox="0 0 24 24"><defs><style>.cls-1{fill:none;}.cls-2{fill:#fa1e41;}</style></defs><g id="Background_Square"><rect class="cls-1" width="24" height="24"/></g><g id="Outlined_Paths"><path class="cls-2" d="m20.694,13.02l-.243-1.942-10.727-2.044-.17-1.191,1.579-.526-.316-.949-2.37.79,1.013,7.092h-2.01c-.16-1.026-.795-1.883-1.677-2.355l1.181-3.395h-2.953v1h1.547l-.716,2.059c-.189-.034-.382-.059-.581-.059-1.795,0-3.25,1.455-3.25,3.25s1.455,3.25,3.25,3.25c1.624,0,2.958-1.194,3.2-2.75h9.247l2.928-2.72.076.612c-.987.335-1.701,1.258-1.701,2.358,0,1.381,1.119,2.5,2.5,2.5s2.5-1.119,2.5-2.5c0-1.314-1.017-2.38-2.306-2.48Zm-14.255,1.23h-1.486l.487-1.401c.498.313.864.812.999,1.401Zm-2.19,2.75c-1.241,0-2.25-1.009-2.25-2.25s1.009-2.25,2.25-2.25c.084,0,.163.016.245.025l-.948,2.725h2.893c-.229,1-1.121,1.75-2.19,1.75Zm12.054-2.75h-5.835l-.596-4.17,9.063,1.726-2.632,2.444Zm4.196,2.75c-.827,0-1.5-.673-1.5-1.5,0-.585.34-1.087.829-1.334l.236,1.892.993-.124-.237-1.897c.673.148,1.179.747,1.179,1.463,0,.827-.673,1.5-1.5,1.5Z"/></g></svg>