<?xml version="1.0" encoding="UTF-8"?><svg xmlns="http://www.w3.org/2000/svg" viewBox="0 0 24 24"><defs><style>.cls-1{fill:none;}.cls-2{fill:#fa1e41;}</style></defs><g id="Background_Square"><rect class="cls-1" width="24" height="24"/></g><g id="Outlined_Paths"><path class="cls-2" d="m21.25,7.75c-1.517,0-2.75,1.233-2.75,2.75v5.25c0,.965-.785,1.75-1.75,1.75h-2.25v-8.5h2v-1h-4.75V3h4.75v-1H6v1h4.75v5h-4.75v1h2v12h-2v1h10.5v-1h-2v-2.5h2.25c1.517,0,2.75-1.233,2.75-2.75v-5.25c0-.965.785-1.75,1.75-1.75h.75v-1h-.75Zm-12.25,13.25v-12h4.5v12h-4.5Z"/></g></svg>