<?xml version="1.0" encoding="UTF-8"?><svg xmlns="http://www.w3.org/2000/svg" viewBox="0 0 24 24"><defs><style>.cls-1{fill:none;}.cls-2{fill:#fa1e41;}</style></defs><g id="Background_Square"><rect class="cls-1" width="24" height="24"/></g><g id="Outlined_Paths"><path class="cls-2" d="m7.818,2.756c1.468,0,2.847.571,3.885,1.609,1.575,1.574,2.044,3.923,1.197,5.984l-.254.616.471.471,7.734,7.734c.283.283.439.66.439,1.061s-.156.777-.439,1.061c-.283.283-.66.439-1.061.439s-.777-.156-1.061-.439l-7.734-7.734-.471-.471-.616.254c-.667.274-1.372.413-2.097.413-1.469,0-2.849-.572-3.887-1.61-1.343-1.343-1.875-3.238-1.493-5.028l3.393,3.393.707.707.707-.707,2.828-2.828.707-.707-.707-.707-3.39-3.39c.374-.079.757-.119,1.14-.119m0-1c-1.017,0-2.035.237-2.962.712l4.505,4.505-2.828,2.828L2.027,5.296c-1.249,2.443-.854,5.51,1.19,7.554,1.269,1.269,2.932,1.903,4.594,1.903.843,0,1.685-.163,2.477-.488l7.734,7.734c.488.488,1.128.732,1.768.732s1.28-.244,1.768-.732c.976-.976.976-2.559,0-3.536l-7.734-7.734c.968-2.354.497-5.16-1.414-7.071-1.268-1.268-2.93-1.902-4.592-1.902h0Z"/></g></svg>